<svg width="158" height="34" viewBox="0 0 158 34" fill="none" xmlns="http://www.w3.org/2000/svg">
<rect y="17" width="24" height="24" rx="4" transform="rotate(-45 0 17)" fill="url(#paint0_linear_9_1259)"/>
<path d="M53.0292 25.3174C51.8932 25.3174 50.8452 25.1094 49.8852 24.6934C48.9412 24.2614 48.1652 23.6534 47.5572 22.8694L49.7172 20.2774C50.1812 20.8854 50.6692 21.3494 51.1812 21.6694C51.6932 21.9734 52.2452 22.1254 52.8372 22.1254C54.4212 22.1254 55.2132 21.1974 55.2132 19.3414V11.3494H49.3092V8.22942H59.0772V19.1254C59.0772 21.2054 58.5652 22.7574 57.5412 23.7814C56.5172 24.8054 55.0132 25.3174 53.0292 25.3174ZM68.7975 25.2214C67.4215 25.2214 66.1975 24.9334 65.1255 24.3574C64.0695 23.7814 63.2295 22.9974 62.6055 22.0054C61.9975 20.9974 61.6935 19.8534 61.6935 18.5734C61.6935 17.2774 61.9975 16.1334 62.6055 15.1414C63.2295 14.1334 64.0695 13.3494 65.1255 12.7894C66.1975 12.2134 67.4215 11.9254 68.7975 11.9254C70.1575 11.9254 71.3735 12.2134 72.4455 12.7894C73.5175 13.3494 74.3575 14.1254 74.9655 15.1174C75.5735 16.1094 75.8775 17.2614 75.8775 18.5734C75.8775 19.8534 75.5735 20.9974 74.9655 22.0054C74.3575 22.9974 73.5175 23.7814 72.4455 24.3574C71.3735 24.9334 70.1575 25.2214 68.7975 25.2214ZM68.7975 22.1494C69.4215 22.1494 69.9815 22.0054 70.4775 21.7174C70.9735 21.4294 71.3655 21.0214 71.6535 20.4934C71.9415 19.9494 72.0855 19.3094 72.0855 18.5734C72.0855 17.8214 71.9415 17.1814 71.6535 16.6534C71.3655 16.1254 70.9735 15.7174 70.4775 15.4294C69.9815 15.1414 69.4215 14.9974 68.7975 14.9974C68.1735 14.9974 67.6135 15.1414 67.1175 15.4294C66.6215 15.7174 66.2215 16.1254 65.9175 16.6534C65.6295 17.1814 65.4855 17.8214 65.4855 18.5734C65.4855 19.3094 65.6295 19.9494 65.9175 20.4934C66.2215 21.0214 66.6215 21.4294 67.1175 21.7174C67.6135 22.0054 68.1735 22.1494 68.7975 22.1494ZM86.0121 25.2214C84.8761 25.2214 83.9001 24.9814 83.0841 24.5014C82.2681 24.0214 81.6441 23.2934 81.2121 22.3174C80.7801 21.3254 80.5641 20.0774 80.5641 18.5734C80.5641 17.0534 80.7881 15.8054 81.2361 14.8294C81.7001 13.8534 82.3401 13.1254 83.1561 12.6454C83.9721 12.1654 84.9241 11.9254 86.0121 11.9254C87.2281 11.9254 88.3161 12.1974 89.2761 12.7414C90.2521 13.2854 91.0201 14.0534 91.5801 15.0454C92.1561 16.0374 92.4441 17.2134 92.4441 18.5734C92.4441 19.9174 92.1561 21.0854 91.5801 22.0774C91.0201 23.0694 90.2521 23.8454 89.2761 24.4054C88.3161 24.9494 87.2281 25.2214 86.0121 25.2214ZM78.3801 25.0294V7.22142H82.1241V14.7334L81.8841 18.5494L81.9561 22.3894V25.0294H78.3801ZM85.3641 22.1494C85.9881 22.1494 86.5401 22.0054 87.0201 21.7174C87.5161 21.4294 87.9081 21.0214 88.1961 20.4934C88.5001 19.9494 88.6521 19.3094 88.6521 18.5734C88.6521 17.8214 88.5001 17.1814 88.1961 16.6534C87.9081 16.1254 87.5161 15.7174 87.0201 15.4294C86.5401 15.1414 85.9881 14.9974 85.3641 14.9974C84.7401 14.9974 84.1801 15.1414 83.6841 15.4294C83.1881 15.7174 82.7961 16.1254 82.5081 16.6534C82.2201 17.1814 82.0761 17.8214 82.0761 18.5734C82.0761 19.3094 82.2201 19.9494 82.5081 20.4934C82.7961 21.0214 83.1881 21.4294 83.6841 21.7174C84.1801 22.0054 84.7401 22.1494 85.3641 22.1494ZM105.491 25.0294V11.3974H100.115V8.22942H114.755V11.3974H109.379V25.0294H105.491ZM123.847 25.0294V22.5094L123.607 21.9574V17.4454C123.607 16.6454 123.359 16.0214 122.863 15.5734C122.383 15.1254 121.639 14.9014 120.631 14.9014C119.943 14.9014 119.263 15.0134 118.591 15.2374C117.935 15.4454 117.375 15.7334 116.911 16.1014L115.567 13.4854C116.271 12.9894 117.119 12.6054 118.111 12.3334C119.103 12.0614 120.111 11.9254 121.135 11.9254C123.103 11.9254 124.631 12.3894 125.719 13.3174C126.807 14.2454 127.351 15.6934 127.351 17.6614V25.0294H123.847ZM119.911 25.2214C118.903 25.2214 118.039 25.0534 117.319 24.7174C116.599 24.3654 116.047 23.8934 115.663 23.3014C115.279 22.7094 115.087 22.0454 115.087 21.3094C115.087 20.5414 115.271 19.8694 115.639 19.2934C116.023 18.7174 116.623 18.2694 117.439 17.9494C118.255 17.6134 119.319 17.4454 120.631 17.4454H124.063V19.6294H121.039C120.159 19.6294 119.551 19.7734 119.215 20.0614C118.895 20.3494 118.735 20.7094 118.735 21.1414C118.735 21.6214 118.919 22.0054 119.287 22.2934C119.671 22.5654 120.191 22.7014 120.847 22.7014C121.471 22.7014 122.031 22.5574 122.527 22.2694C123.023 21.9654 123.383 21.5254 123.607 20.9494L124.183 22.6774C123.911 23.5094 123.415 24.1414 122.695 24.5734C121.975 25.0054 121.047 25.2214 119.911 25.2214ZM135.083 25.2214C133.979 25.2214 132.915 25.0934 131.891 24.8374C130.883 24.5654 130.083 24.2294 129.491 23.8294L130.739 21.1414C131.331 21.5094 132.027 21.8134 132.827 22.0534C133.643 22.2774 134.443 22.3894 135.227 22.3894C136.091 22.3894 136.699 22.2854 137.051 22.0774C137.419 21.8694 137.603 21.5814 137.603 21.2134C137.603 20.9094 137.459 20.6854 137.171 20.5414C136.899 20.3814 136.531 20.2614 136.067 20.1814C135.603 20.1014 135.091 20.0214 134.531 19.9414C133.987 19.8614 133.435 19.7574 132.875 19.6294C132.315 19.4854 131.803 19.2774 131.339 19.0054C130.875 18.7334 130.499 18.3654 130.211 17.9014C129.939 17.4374 129.803 16.8374 129.803 16.1014C129.803 15.2854 130.035 14.5654 130.499 13.9414C130.979 13.3174 131.667 12.8294 132.563 12.4774C133.459 12.1094 134.531 11.9254 135.779 11.9254C136.659 11.9254 137.555 12.0214 138.467 12.2134C139.379 12.4054 140.139 12.6854 140.747 13.0534L139.499 15.7174C138.875 15.3494 138.243 15.1014 137.603 14.9734C136.979 14.8294 136.371 14.7574 135.779 14.7574C134.947 14.7574 134.339 14.8694 133.955 15.0934C133.571 15.3174 133.379 15.6054 133.379 15.9574C133.379 16.2774 133.515 16.5174 133.787 16.6774C134.075 16.8374 134.451 16.9654 134.915 17.0614C135.379 17.1574 135.883 17.2454 136.427 17.3254C136.987 17.3894 137.547 17.4934 138.107 17.6374C138.667 17.7814 139.171 17.9894 139.619 18.2614C140.083 18.5174 140.459 18.8774 140.747 19.3414C141.035 19.7894 141.179 20.3814 141.179 21.1174C141.179 21.9174 140.939 22.6294 140.459 23.2534C139.979 23.8614 139.283 24.3414 138.371 24.6934C137.475 25.0454 136.379 25.2214 135.083 25.2214ZM146.585 22.3894L146.681 17.8294L152.705 12.1174H157.169L151.385 17.9974L149.441 19.5814L146.585 22.3894ZM143.489 25.0294V7.22142H147.233V25.0294H143.489ZM153.113 25.0294L148.745 19.6054L151.097 16.7014L157.649 25.0294H153.113Z" fill="#6078EA"/>
<defs>
<linearGradient id="paint0_linear_9_1259" x1="0" y1="17" x2="24" y2="41.96" gradientUnits="userSpaceOnUse">
<stop stop-color="#17EAD9"/>
<stop offset="1" stop-color="#6078EA"/>
</linearGradient>
</defs>
</svg>
